<svg version="1.2" xmlns="http://www.w3.org/2000/svg" viewBox="0 0 1024 1150" width="1024" height="1150">
	<title>black-basin-svg</title>
	<defs>
		<clipPath clipPathUnits="userSpaceOnUse" id="cp1">
			<path d="m546.71 946.61v-477.26h477.29c0 263.58-213.69 477.25-477.29 477.25zm-546.71-477.25h477.29v477.25c-263.6 0-477.29-213.67-477.29-477.25zm545.03-63.31v-328.64h328.66c0 181.49-147.14 328.64-328.66 328.64zm-396.33-328.64h328.66v328.64c-181.5 0-328.66-147.14-328.66-328.64z"/>
		</clipPath>
	</defs>
	<style>
		.s0 { fill: #000000 } 
		.s1 { mix-blend-mode: multiply;fill: #000000 } 
	</style>
	<g id="Clip-Path" clip-path="url(#cp1)">
		<g id="Layer">
			<path id="Layer" class="s0" d="m-145.9 1186.5h1437.7l-0.1-1437.6h-1437.6z"/>
			<path id="Layer" class="s0" d="m1178.6 378.8c-214.2-25.1-394.5-184.2-509.4-295.2-134.7-130.2-313.3-191.2-407.6-153.4-65 26.1-82 109.1-34.2 174.7 47.9 65.5 85.7 291.9 34.5 410-58.4 134.9-227.4 144.3-227.4 390.6v355.4h1313.7v-882.1h-169.6z"/>
			<g id="Layer" style="opacity: .1">
				<path id="Layer" class="s1" d="m1178.6 378.8c-214.2-25.1-394.5-184.2-509.4-295.2-134.7-130.2-313.3-191.2-407.6-153.4-65 26.1-82 109.1-34.2 174.7 47.9 65.5 85.7 291.9 34.5 410-58.4 134.9-227.4 144.3-227.4 390.6v355.4h1313.7v-882.1h-169.6z"/>
			</g>
			<path id="Layer" class="s0" d="m289.6 1058.7c0 0-183.2-121.4-150.3-196.1 35.9-81.9 152.9-61.3 234.7-130.1 83-69.8 63.7-185.9 21.2-287.9-57.7-138.6-118.5-272.5-19.3-387.1 58.3-67.3 178.9-48.5 246.6 58.9 65.2 103.4 153.3 243.9 261.4 249.7 77.9 4.1 202.6 30.8 318.3 195.1h142.6v685h-1055.2z"/>
			<g id="Layer" style="opacity: .1">
				<path id="Layer" class="s1" d="m289.6 1058.7c0 0-183.2-121.4-150.3-196.1 35.9-81.9 152.9-61.3 234.7-130.1 83-69.8 63.7-185.9 21.2-287.9-57.7-138.6-118.5-272.5-19.3-387.1 58.3-67.3 178.9-48.5 246.6 58.9 65.2 103.4 153.3 243.9 261.4 249.7 77.9 4.1 202.6 30.8 318.3 195.1h142.6v685h-1055.2z"/>
			</g>
			<path id="Layer" class="s0" d="m370.9 1127.4c-77.2-207.7 61.1-229.5 129.3-252.7 68.2-23.3 137.9-62.1 138.9-155.4 1.1-98.4-61.9-128.7-110-195.5-48-66.7-172.1-164-84.9-241.2 70.1-62.1 191.3 96.3 304 96.3 112.6 0 360.3 76 396.4 136.1l100.4 17.9v594.5z"/>
			<g id="Layer" style="opacity: .1">
				<path id="Layer" class="s1" d="m370.9 1127.4c-77.2-207.7 61.1-229.5 129.3-252.7 68.2-23.3 137.9-62.1 138.9-155.4 1.1-98.4-61.9-128.7-110-195.5-48-66.7-172.1-164-84.9-241.2 70.1-62.1 191.3 96.3 304 96.3 112.6 0 360.3 76 396.4 136.1l100.4 17.9v594.5z"/>
			</g>
		</g>
	</g>
</svg>